<svg xmlns="http://www.w3.org/2000/svg" width="105.31" height="35" viewBox="0 0 105.31 35"><rect class="svg__rect" x="0" y="0" width="105.31" height="35" fill="#7289DA"/><rect class="svg__rect" x="105.31" y="0" width="0" height="35" fill="#389AD5"/><path class="svg__text" d="M15.78 22L14.31 22L14.31 13.47L15.78 13.47L15.78 22ZM22.07 22L20.59 22L20.59 13.47L22.07 13.47L25.89 19.54L25.89 13.47L27.36 13.47L27.36 22L25.88 22L22.07 15.95L22.07 22ZM34.40 22L31.34 13.47L32.96 13.47L35.11 20.14L37.27 13.47L38.90 13.47L35.83 22L34.40 22ZM44.42 22L42.94 22L42.94 13.47L44.42 13.47L44.42 22ZM50.91 14.66L48.27 14.66L48.27 13.47L55.04 13.47L55.04 14.66L52.38 14.66L52.38 22L50.91 22L50.91 14.66ZM64.37 22L58.80 22L58.80 13.47L64.33 13.47L64.33 14.66L60.28 14.66L60.28 17.02L63.78 17.02L63.78 18.19L60.28 18.19L60.28 20.82L64.37 20.82L64.37 22ZM76.02 22L74.55 22L74.55 13.47L76.47 13.47L78.93 20.01L81.38 13.47L83.30 13.47L83.30 22L81.82 22L81.82 19.19L81.97 15.43L79.45 22L78.39 22L75.88 15.43L76.02 19.19L76.02 22ZM93.62 22L88.04 22L88.04 13.47L93.58 13.47L93.58 14.66L89.52 14.66L89.52 17.02L93.03 17.02L93.03 18.19L89.52 18.19L89.52 20.82L93.62 20.82L93.62 22Z" fill="#FFFFFF"/><path class="svg__text" d="" fill="#FFFFFF" x="118.31"/></svg>