<svg xmlns="http://www.w3.org/2000/svg" width="261.55" height="35" viewBox="0 0 261.55 35"><rect class="svg__rect" x="0" y="0" width="115.31" height="35" fill="#993399"/><rect class="svg__rect" x="113.31" y="0" width="148.24" height="35" fill="#68217A"/><path class="svg__text" d="M15.69 22L14.22 22L14.22 13.47L16.14 13.47L18.60 20.01L21.06 13.47L22.97 13.47L22.97 22L21.49 22L21.49 19.19L21.64 15.43L19.12 22L18.06 22L15.55 15.43L15.69 19.19L15.69 22ZM28.49 22L26.95 22L30.17 13.47L31.50 13.47L34.73 22L33.18 22L32.49 20.01L29.18 20.01L28.49 22ZM30.83 15.28L29.60 18.82L32.07 18.82L30.83 15.28ZM41.14 22L38.69 22L38.69 13.47L41.21 13.47Q42.34 13.47 43.21 13.97Q44.09 14.48 44.57 15.40Q45.05 16.33 45.05 17.52L45.05 17.52L45.05 17.95Q45.05 19.16 44.57 20.08Q44.08 21.00 43.19 21.50Q42.30 22 41.14 22L41.14 22ZM40.17 14.66L40.17 20.82L41.14 20.82Q42.30 20.82 42.93 20.09Q43.55 19.36 43.56 17.99L43.56 17.99L43.56 17.52Q43.56 16.13 42.96 15.40Q42.35 14.66 41.21 14.66L41.21 14.66L40.17 14.66ZM55.09 22L49.51 22L49.51 13.47L55.05 13.47L55.05 14.66L51.00 14.66L51.00 17.02L54.50 17.02L54.50 18.19L51.00 18.19L51.00 20.82L55.09 20.82L55.09 22ZM66.65 22L64.68 13.47L66.15 13.47L67.47 19.88L69.10 13.47L70.34 13.47L71.96 19.89L73.27 13.47L74.74 13.47L72.77 22L71.35 22L69.73 15.77L68.07 22L66.65 22ZM80.38 22L78.90 22L78.90 13.47L80.38 13.47L80.38 22ZM86.87 14.66L84.23 14.66L84.23 13.47L91.00 13.47L91.00 14.66L88.34 14.66L88.34 22L86.87 22L86.87 14.66ZM96.24 22L94.75 22L94.75 13.47L96.24 13.47L96.24 17.02L100.05 17.02L100.05 13.47L101.53 13.47L101.53 22L100.05 22L100.05 18.21L96.24 18.21L96.24 22Z" fill="#FFFFFF"/><path class="svg__text" d="M131.47 22L127.50 22L127.50 13.60L131.47 13.60Q132.85 13.60 133.92 14.12Q134.99 14.63 135.58 15.58Q136.16 16.53 136.16 17.80L136.16 17.80Q136.16 19.07 135.58 20.02Q134.99 20.97 133.92 21.48Q132.85 22 131.47 22L131.47 22ZM129.88 15.50L129.88 20.10L131.38 20.10Q132.45 20.10 133.11 19.49Q133.76 18.88 133.76 17.80L133.76 17.80Q133.76 16.72 133.11 16.11Q132.45 15.50 131.38 15.50L131.38 15.50L129.88 15.50ZM143.27 22L140.89 22L140.89 13.60L143.27 13.60L143.27 22ZM147.86 21.24L147.86 21.24L148.64 19.49Q149.20 19.86 149.95 20.09Q150.69 20.32 151.41 20.32L151.41 20.32Q152.78 20.32 152.78 19.64L152.78 19.64Q152.78 19.28 152.39 19.11Q152.00 18.93 151.13 18.74L151.13 18.74Q150.19 18.53 149.55 18.30Q148.91 18.06 148.46 17.55Q148.01 17.03 148.01 16.16L148.01 16.16Q148.01 15.39 148.42 14.77Q148.84 14.15 149.68 13.79Q150.51 13.43 151.72 13.43L151.72 13.43Q152.55 13.43 153.35 13.62Q154.16 13.80 154.77 14.17L154.77 14.17L154.04 15.93Q152.84 15.28 151.71 15.28L151.71 15.28Q151.00 15.28 150.68 15.49Q150.36 15.70 150.36 16.04L150.36 16.04Q150.36 16.37 150.74 16.54Q151.12 16.71 151.97 16.89L151.97 16.89Q152.93 17.10 153.56 17.33Q154.19 17.56 154.66 18.07Q155.12 18.58 155.12 19.46L155.12 19.46Q155.12 20.21 154.70 20.83Q154.28 21.44 153.44 21.80Q152.60 22.17 151.40 22.17L151.40 22.17Q150.38 22.17 149.42 21.92Q148.46 21.67 147.86 21.24ZM159.27 17.80L159.27 17.80Q159.27 16.54 159.87 15.54Q160.46 14.55 161.51 13.99Q162.57 13.43 163.88 13.43L163.88 13.43Q165.04 13.43 165.96 13.84Q166.88 14.25 167.50 15.02L167.50 15.02L165.99 16.39Q165.17 15.40 164.01 15.40L164.01 15.40Q163.32 15.40 162.79 15.70Q162.26 16 161.96 16.54Q161.66 17.09 161.66 17.80L161.66 17.80Q161.66 18.51 161.96 19.05Q162.26 19.60 162.79 19.90Q163.32 20.20 164.01 20.20L164.01 20.20Q165.17 20.20 165.99 19.22L165.99 19.22L167.50 20.58Q166.89 21.35 165.96 21.76Q165.04 22.17 163.88 22.17L163.88 22.17Q162.57 22.17 161.51 21.61Q160.46 21.05 159.87 20.05Q159.27 19.06 159.27 17.80ZM171.61 17.80L171.61 17.80Q171.61 16.55 172.21 15.55Q172.81 14.56 173.88 14.00Q174.94 13.43 176.27 13.43L176.27 13.43Q177.60 13.43 178.66 14.00Q179.73 14.56 180.33 15.55Q180.94 16.55 180.94 17.80L180.94 17.80Q180.94 19.05 180.33 20.04Q179.73 21.04 178.67 21.60Q177.61 22.17 176.27 22.17L176.27 22.17Q174.94 22.17 173.88 21.60Q172.81 21.04 172.21 20.04Q171.61 19.05 171.61 17.80ZM174.00 17.80L174.00 17.80Q174.00 18.51 174.31 19.05Q174.61 19.60 175.12 19.90Q175.64 20.20 176.27 20.20L176.27 20.20Q176.91 20.20 177.43 19.90Q177.94 19.60 178.24 19.05Q178.54 18.51 178.54 17.80L178.54 17.80Q178.54 17.09 178.24 16.54Q177.94 16 177.43 15.70Q176.91 15.40 176.27 15.40L176.27 15.40Q175.63 15.40 175.12 15.70Q174.61 16 174.31 16.54Q174.00 17.09 174.00 17.80ZM188.05 22L185.67 22L185.67 13.60L189.51 13.60Q190.66 13.60 191.49 13.98Q192.33 14.35 192.79 15.06Q193.25 15.76 193.25 16.71L193.25 16.71Q193.25 17.62 192.82 18.30Q192.39 18.98 191.60 19.36L191.60 19.36L193.41 22L190.87 22L189.34 19.77L188.05 19.77L188.05 22ZM188.05 15.47L188.05 17.93L189.37 17.93Q190.10 17.93 190.47 17.61Q190.84 17.29 190.84 16.71L190.84 16.71Q190.84 16.12 190.47 15.79Q190.10 15.47 189.37 15.47L189.37 15.47L188.05 15.47ZM202.01 22L198.03 22L198.03 13.60L202.01 13.60Q203.39 13.60 204.45 14.12Q205.52 14.63 206.11 15.58Q206.70 16.53 206.70 17.80L206.70 17.80Q206.70 19.07 206.11 20.02Q205.52 20.97 204.45 21.48Q203.39 22 202.01 22L202.01 22ZM200.41 15.50L200.41 20.10L201.91 20.10Q202.99 20.10 203.64 19.49Q204.30 18.88 204.30 17.80L204.30 17.80Q204.30 16.72 203.64 16.11Q202.99 15.50 201.91 15.50L201.91 15.50L200.41 15.50ZM210.91 20.75L210.91 20.75Q210.91 20.15 211.30 19.78Q211.69 19.41 212.28 19.41L212.28 19.41Q212.88 19.41 213.26 19.78Q213.65 20.15 213.65 20.75L213.65 20.75Q213.65 21.34 213.26 21.72Q212.87 22.11 212.28 22.11L212.28 22.11Q211.70 22.11 211.31 21.72Q210.91 21.34 210.91 20.75ZM220.64 22L218.31 22L218.31 13.60L220.26 13.60L223.97 18.07L223.97 13.60L226.30 13.60L226.30 22L224.35 22L220.64 17.52L220.64 22ZM238.20 22L231.46 22L231.46 13.60L238.05 13.60L238.05 15.44L233.82 15.44L233.82 16.85L237.55 16.85L237.55 18.63L233.82 18.63L233.82 20.17L238.20 20.17L238.20 22ZM244.80 15.48L242.22 15.48L242.22 13.60L249.74 13.60L249.74 15.48L247.18 15.48L247.18 22L244.80 22L244.80 15.48Z" fill="#FFFFFF" x="126.31"/></svg>